<?xml version="1.0" encoding="UTF-8"?>
<svg width="25px" height="25px" viewBox="0 0 25 25" version="1.1" xmlns="http://www.w3.org/2000/svg" xmlns:xlink="http://www.w3.org/1999/xlink">
    <!-- Generator: Sketch 62 (91390) - https://sketch.com -->
    <title>KursOrganizer-Logo-Schriftzug</title>
    <desc>Created with Sketch.</desc>
    <g id="Page-1" stroke="none" stroke-width="1" fill="none" fill-rule="evenodd">
        <g id="KursOrganizer-Logo-2" fill="currentColor" fill-rule="nonzero">
            <path d="M19.926,22.553c-2.076,1.537 -4.646,2.447 -7.426,2.447c-3.047,0 -5.84,-1.092 -8.01,-2.907l7.488,-7.488l7.948,7.948Zm2.167,-18.063c1.815,2.17 2.907,4.963 2.907,8.01c-0,3.313 -1.292,6.326 -3.398,8.564l-8.041,-8.042l8.532,-8.532Zm-17.34,14.174l-1.846,1.846c-1.815,-2.17 -2.907,-4.963 -2.907,-8.01c-0,-3.974 1.858,-7.517 4.753,-9.808l0,15.972Zm2.238,-17.386c1.662,-0.818 3.532,-1.278 5.509,-1.278c3.047,-0 5.84,1.092 8.01,2.907l-13.519,13.519l0,-15.148Z"/>
        </g>
    </g>
</svg>