<svg width="256" height="256" viewBox="0 0 25 25" xmlns="http://www.w3.org/2000/svg">
    <rect width="25" height="25" rx="4" fill="#0760ff"/>
    <g fill="#ffffff" transform="translate(0,0)">
        <path d="M19.926,22.553c-2.076,1.537 -4.646,2.447 -7.426,2.447c-3.047,0 -5.84,-1.092 -8.01,-2.907l7.488,-7.488l7.948,7.948Zm2.167,-18.063c1.815,2.17 2.907,4.963 2.907,8.01c-0,3.313 -1.292,6.326 -3.398,8.564l-8.041,-8.042l8.532,-8.532Zm-17.34,14.174l-1.846,1.846c-1.815,-2.17 -2.907,-4.963 -2.907,-8.01c-0,-3.974 1.858,-7.517 4.753,-9.808l0,15.972Zm2.238,-17.386c1.662,-0.818 3.532,-1.278 5.509,-1.278c3.047,-0 5.84,1.092 8.01,2.907l-13.519,13.519l0,-15.148Z"/>
    </g>
</svg>
